<svg width="40" height="41" viewBox="0 0 40 41" fill="none" xmlns="http://www.w3.org/2000/svg">
<path fill-rule="evenodd" clip-rule="evenodd" d="M20 38.0835C29.9411 38.0835 38 30.0246 38 20.0835C38 10.1424 29.9411 2.0835 20 2.0835C10.0589 2.0835 2 10.1424 2 20.0835C2 30.0246 10.0589 38.0835 20 38.0835ZM20 40.0835C31.0457 40.0835 40 31.1292 40 20.0835C40 9.0378 31.0457 0.0834961 20 0.0834961C8.9543 0.0834961 0 9.0378 0 20.0835C0 31.1292 8.9543 40.0835 20 40.0835Z" fill="white"/>
<path d="M11.9178 14.2432H9.53603C9.50747 14.9561 8.5022 16.1709 7 16.1709V18.1329C8.29086 18.1329 9.13049 17.6538 9.38181 17.266H9.49033V25.9238H11.9178V14.2432Z" fill="white"/>
<path d="M19.0647 26.0835C21.6921 26.0835 23.5941 24.6748 23.6056 22.7812C23.5941 21.3211 22.4746 20.1291 21.0695 19.8953V19.8154C22.2918 19.5645 23.16 18.5036 23.1715 17.2261C23.16 15.4181 21.4237 14.0835 19.0647 14.0835C16.6886 14.0835 14.9522 15.4181 14.9636 17.2261C14.9522 18.5036 15.8204 19.5645 17.0656 19.8154V19.8953C15.6376 20.1291 14.5181 21.3211 14.5295 22.7812C14.5181 24.6748 16.4144 26.0835 19.0647 26.0835ZM19.0647 24.2698C17.8824 24.2698 17.0884 23.5797 17.0998 22.5873C17.0884 21.5778 17.9223 20.8478 19.0647 20.8478C20.1899 20.8478 21.0181 21.5778 21.0295 22.5873C21.0181 23.5797 20.2299 24.2698 19.0647 24.2698ZM19.0647 19.0512C18.0708 19.0512 17.3626 18.4067 17.374 17.4827C17.3626 16.5759 18.0594 15.9428 19.0647 15.9428C20.0528 15.9428 20.744 16.5759 20.7554 17.4827C20.744 18.4067 20.0414 19.0512 19.0647 19.0512Z" fill="white"/>
<path d="M33 19.1424H30.1898V16.4333H28.2764V19.1424H25.4662V21.0246H28.2764V23.7337H30.1898V21.0246H33V19.1424Z" fill="white"/>
</svg>
