<svg viewBox="0 0 25 24" xmlns="http://www.w3.org/2000/svg"><path fill-rule="evenodd" clip-rule="evenodd" d="M19.334 5.104a5.491 5.491 0 0 1 1.026 6.33c-.09.182-.051.357.038.447l2.505 2.505a1.29 1.29 0 0 1 0 1.824l-.22.221a1.29 1.29 0 0 1-1.825 0l-2.505-2.505c-.09-.09-.265-.13-.446-.039a5.49 5.49 0 0 1-6.33-1.025 5.491 5.491 0 0 1 0-7.758 5.49 5.49 0 0 1 7.757 0zM17.63 11.16a3.08 3.08 0 0 0 0-4.352 3.081 3.081 0 0 0-4.352 0 3.082 3.082 0 0 0 0 4.352 3.08 3.08 0 0 0 4.352 0z"/><path d="M3 3.68h6.567a6.948 6.948 0 0 0-1.2 3H3a1.5 1.5 0 0 1 0-3zm5.47 7H3a1.5 1.5 0 0 0 0 3h6.934c-.681-.744-1.204-1.724-1.464-3zm10.88 7H3a1.5 1.5 0 0 0 0 3h17a1.5 1.5 0 0 0 1.475-1.227c-.398-.043-1.04-.08-1.475-.453-.396-.34-.456-1.045-.65-1.32z"/></svg>