<svg width="72" height="24" viewBox="0 0 72 24" fill="none" xmlns="http://www.w3.org/2000/svg">
<path d="M60.0002 17.9678C60.0002 19.4583 58.7917 20.6668 57.3012 20.6668H14.6776C13.1988 20.6668 12.0002 19.4681 12.0002 17.9897V5.91441C12.0002 4.48893 13.1556 3.33344 14.5811 3.33344H57.4192C58.8447 3.33344 60.0002 4.48893 60.0002 5.91408V17.9678Z" fill="#EBAB1F"/>
<path d="M28.9687 10.0797V14.4846L28.1825 14.6611V10.2562L28.9687 10.0797ZM31.0499 10.6478C30.5648 10.7566 30.267 11.3028 30.267 11.3028V10.8923L29.5041 11.0587V13.6867C29.5972 13.6511 29.6983 13.6305 29.8038 13.6305C29.9738 13.6305 30.1317 13.6815 30.2637 13.7684V12.4855C30.2696 11.8709 30.4458 11.512 30.8139 11.4293C31.1371 11.3568 31.2584 11.5977 31.2532 11.9697V13.9763L32.002 13.8073L32.0073 11.8069C32.0138 10.8272 31.6186 10.52 31.0499 10.6478ZM32.1835 10.4569L32.6126 10.3605V9.74399L33.3716 9.57499V10.1902L33.9119 10.0686L33.9044 10.7347L33.3635 10.8563L33.3595 12.5244C33.3631 12.728 33.3988 12.8542 33.6272 12.8028C33.7165 12.7829 33.7877 12.7604 33.8691 12.7293L33.8711 13.3549C33.6815 13.4448 33.5671 13.4811 33.4112 13.5161C32.9771 13.6164 32.6025 13.334 32.6025 12.7571L32.6051 11.0266L32.1756 11.1231L32.1835 10.4569ZM34.8265 11.7183C34.8269 11.7886 34.8249 11.8461 34.8363 11.9138C34.8932 12.2517 35.0593 12.5142 35.4008 12.4377C35.7146 12.3675 35.8189 12.1589 35.8791 11.9288L36.6743 11.7503C36.5913 12.2599 36.3158 12.9022 35.4476 13.0967C34.669 13.2713 34.1983 12.8218 34.0692 12.0537C33.9276 11.2116 34.147 9.95711 35.3008 9.69822C36.1523 9.50733 36.5508 10.011 36.6603 10.6625C36.7038 10.9207 36.7011 11.1126 36.6861 11.3009L34.8265 11.7183ZM35.9314 10.8903C35.9333 10.8325 35.9252 10.7834 35.9189 10.7465C35.8725 10.47 35.7202 10.2552 35.3842 10.3307C35.0367 10.4085 34.8654 10.702 34.8337 11.1365L35.9314 10.8903ZM38.5643 9.92213C38.0358 10.0473 37.7808 10.4157 37.7779 11.1381L37.771 12.511L37.0127 12.6813V9.37201L37.7445 9.20792C37.754 9.28898 37.7713 9.53414 37.77 9.80282C37.8932 9.3792 38.0622 9.1615 38.564 9.04906V9.92213H38.5643ZM41.2581 11.7039L41.2538 11.7049L40.4925 11.8768C40.4402 11.7817 40.3876 11.6307 40.3647 11.5245C40.2569 11.7529 40.1091 12.0161 39.5737 12.1364C39.0049 12.2642 38.6817 11.8768 38.6111 11.5029C38.444 10.6207 39.0772 10.1921 39.725 10.0271C39.9581 9.96757 40.1542 9.93259 40.3755 9.8767L40.3644 9.67829C40.3595 9.43673 40.3036 9.14254 39.8966 9.23407C39.5341 9.31546 39.5152 9.54492 39.4828 9.71195L38.7078 9.88585C38.7176 9.35338 38.95 8.83953 39.8476 8.63785C40.5501 8.47998 41.1342 8.68852 41.1289 9.55211V11.1217C41.1289 11.1217 41.1476 11.3865 41.1776 11.514C41.208 11.6434 41.2581 11.7039 41.2581 11.7039ZM40.3637 10.4131C40.1742 10.4556 40.0146 10.5043 39.8679 10.5566C39.458 10.7253 39.3197 10.9161 39.3707 11.1855C39.4054 11.3692 39.5381 11.4865 39.7835 11.4313C40.3075 11.3136 40.3533 10.8178 40.3621 10.4647L40.3637 10.4131ZM43.9936 9.99176C43.9511 10.6272 43.6547 11.2113 42.8015 11.4029C42.071 11.5669 41.597 11.1816 41.4532 10.4216C41.2793 9.50243 41.5421 8.24888 42.6126 8.00863C43.5494 7.79812 43.9214 8.47507 43.959 8.88824L43.2229 9.05363C43.1709 8.80979 43.0509 8.57477 42.7107 8.65126C42.1753 8.77154 42.1305 9.70149 42.2266 10.2101C42.3099 10.6514 42.509 10.8109 42.7819 10.7498C43.033 10.6935 43.1768 10.5013 43.2346 10.1627L43.9936 9.99176ZM31.5402 15.6172L30.4667 14.8867C30.4667 14.8867 30.4664 16.6008 30.4664 16.6795C30.4664 16.7345 30.4216 16.7792 30.367 16.7792C30.3121 16.7792 30.268 16.7345 30.268 16.6795C30.268 16.6603 30.2657 14.7193 30.2657 14.4823C30.2657 14.2283 30.0594 14.0214 29.8055 14.0214C29.5505 14.0214 29.3446 14.2283 29.3446 14.4823L29.3452 18.3103C29.3452 18.9974 29.9045 19.5576 30.5919 19.5576H30.6743C31.3522 19.5576 31.8965 19.0082 31.8965 18.3299C31.8965 18.3299 31.8971 16.3301 31.8971 16.3098C31.8971 16.0441 31.7503 15.7784 31.5402 15.6172ZM28.4254 15.0465C28.2355 15.0923 28.1182 15.2831 28.1639 15.4731C28.2097 15.663 28.4006 15.7803 28.5905 15.7346L29.1269 15.6058V14.8778L28.4254 15.0465ZM28.4254 15.9843C28.2355 16.03 28.1182 16.2209 28.1639 16.4109C28.2097 16.6008 28.4006 16.7181 28.5905 16.6723L29.1269 16.5436V15.8156L28.4254 15.9843ZM28.1639 17.349C28.2094 17.5389 28.4006 17.6562 28.5905 17.6105L29.1269 17.4817V16.7537L28.4254 16.9221C28.2355 16.9678 28.1185 17.1591 28.1639 17.349Z" fill="black"/>
</svg>
