<svg width="72" height="24" viewBox="0 0 72 24" fill="none" xmlns="http://www.w3.org/2000/svg">
<path d="M15.8573 7.61481H10.9763V16.386H15.8573V7.61481Z" fill="#FF5F00"/>
<path d="M11.2855 11.9999C11.2847 11.1552 11.4761 10.3213 11.8452 9.56154C12.2144 8.80172 12.7515 8.13585 13.416 7.61432C12.5931 6.9675 11.6048 6.56525 10.5641 6.45355C9.52343 6.34185 8.4723 6.5252 7.53087 6.98266C6.58945 7.44011 5.79572 8.15321 5.24041 9.04044C4.6851 9.92766 4.39063 10.9532 4.39062 11.9999C4.39062 13.0466 4.6851 14.0722 5.24041 14.9594C5.79572 15.8466 6.58945 16.5597 7.53087 17.0172C8.4723 17.4746 9.52343 17.658 10.5641 17.5463C11.6048 17.4346 12.5931 17.0323 13.416 16.3855C12.7515 15.864 12.2144 15.1981 11.8453 14.4383C11.4761 13.6785 11.2847 12.8446 11.2855 11.9999Z" fill="#EB001B"/>
<path d="M22.4424 12.0001C22.4425 13.0468 22.148 14.0723 21.5927 14.9595C21.0375 15.8468 20.2438 16.5599 19.3023 17.0173C18.3609 17.4748 17.3098 17.6582 16.2691 17.5465C15.2284 17.4348 14.2402 17.0325 13.4173 16.3857C14.0812 15.8636 14.618 15.1976 14.987 14.438C15.3561 13.6783 15.5478 12.8447 15.5478 12.0001C15.5478 11.1555 15.3561 10.3219 14.987 9.56223C14.618 8.80254 14.0812 8.13656 13.4173 7.6145C14.2402 6.96768 15.2284 6.56543 16.2691 6.45373C17.3098 6.34203 18.3609 6.52539 19.3023 6.98285C20.2438 7.44031 21.0375 8.15341 21.5927 9.04064C22.148 9.92787 22.4425 10.9534 22.4424 12.0001Z" fill="#F79E1B"/>
<path d="M32.1917 13.9898V11.6467C32.1917 10.7503 31.6457 10.1634 30.7085 10.1634C30.2398 10.1634 29.7303 10.3181 29.3799 10.8277C29.1069 10.4 28.7156 10.1634 28.1287 10.1634C27.7374 10.1634 27.3461 10.2817 27.0367 10.7094V10.2408H26.2178V13.9898H27.0367V11.9197C27.0367 11.2554 27.3871 10.9414 27.9331 10.9414C28.479 10.9414 28.752 11.2918 28.752 11.9197V13.9898H29.571V11.9197C29.571 11.2554 29.9623 10.9414 30.4673 10.9414C31.0133 10.9414 31.2863 11.2918 31.2863 11.9197V13.9898H32.1917ZM44.3398 10.2408H43.0113V9.10785H42.1923V10.2408H41.4507V10.9824H42.1923V12.7022C42.1923 13.5621 42.5426 14.0672 43.4799 14.0672C43.8302 14.0672 44.2215 13.9489 44.4945 13.7942L44.2579 13.089C44.0213 13.2437 43.7483 13.2846 43.5527 13.2846C43.1614 13.2846 43.0067 13.048 43.0067 12.6613V10.9824H44.3353V10.2408H44.3398ZM51.292 10.1589C50.8234 10.1589 50.5094 10.3955 50.3138 10.7048V10.2362H49.4948V13.9853H50.3138V11.8742C50.3138 11.2508 50.5868 10.8959 51.0964 10.8959C51.251 10.8959 51.4467 10.9369 51.6059 10.9733L51.8425 10.1907C51.6787 10.1589 51.4467 10.1589 51.292 10.1589ZM40.7864 10.5501C40.3951 10.2772 39.8491 10.1589 39.2622 10.1589C38.3249 10.1589 37.7016 10.6275 37.7016 11.3691C37.7016 11.9925 38.1702 12.3473 38.9892 12.4611L39.3805 12.502C39.8082 12.5794 40.0448 12.6977 40.0448 12.8933C40.0448 13.1663 39.7308 13.362 39.1848 13.362C38.6389 13.362 38.2066 13.1663 37.9336 12.9707L37.5424 13.594C37.97 13.9079 38.557 14.0626 39.1439 14.0626C40.2359 14.0626 40.8637 13.553 40.8637 12.8524C40.8637 12.1881 40.3542 11.8378 39.5761 11.7195L39.1848 11.6785C38.8345 11.6376 38.5615 11.5602 38.5615 11.3282C38.5615 11.0552 38.8345 10.9005 39.2667 10.9005C39.7354 10.9005 40.204 11.0961 40.4406 11.2144L40.7864 10.5501ZM62.5756 10.1589C62.107 10.1589 61.7931 10.3955 61.5974 10.7048V10.2362H60.7784V13.9853H61.5974V11.8742C61.5974 11.2508 61.8704 10.8959 62.38 10.8959C62.5347 10.8959 62.7303 10.9369 62.8896 10.9733L63.1262 10.1998C62.9669 10.1589 62.7349 10.1589 62.5756 10.1589ZM52.111 12.1153C52.111 13.2482 52.8935 14.0672 54.1038 14.0672C54.6498 14.0672 55.0411 13.9489 55.4324 13.6395L55.0411 12.9752C54.7271 13.2118 54.4177 13.3256 54.0629 13.3256C53.3986 13.3256 52.9299 12.8569 52.9299 12.1153C52.9299 11.4101 53.3986 10.9414 54.0629 10.905C54.4132 10.905 54.7271 11.0233 55.0411 11.2554L55.4324 10.5911C55.0411 10.2772 54.6498 10.1634 54.1038 10.1634C52.8935 10.1589 52.111 10.9824 52.111 12.1153ZM59.6865 12.1153V10.2408H58.8675V10.7094C58.5945 10.3591 58.2032 10.1634 57.6936 10.1634C56.6381 10.1634 55.8191 10.9824 55.8191 12.1153C55.8191 13.2482 56.6381 14.0672 57.6936 14.0672C58.2396 14.0672 58.6309 13.8715 58.8675 13.5212V13.9898H59.6865V12.1153ZM56.679 12.1153C56.679 11.451 57.1067 10.905 57.8119 10.905C58.4762 10.905 58.9448 11.4146 58.9448 12.1153C58.9448 12.7796 58.4762 13.3256 57.8119 13.3256C57.1113 13.2846 56.679 12.775 56.679 12.1153ZM46.8786 10.1589C45.7867 10.1589 45.0041 10.9414 45.0041 12.1107C45.0041 13.2846 45.7867 14.0626 46.9196 14.0626C47.4656 14.0626 48.0116 13.9079 48.4438 13.5531L48.0525 12.9661C47.7386 13.2027 47.3473 13.3574 46.9605 13.3574C46.451 13.3574 45.9459 13.1208 45.8276 12.4611H48.5985C48.5985 12.3428 48.5985 12.2654 48.5985 12.1471C48.6349 10.9414 47.9297 10.1589 46.8786 10.1589ZM46.8786 10.8641C47.3882 10.8641 47.7386 11.178 47.8159 11.7604H45.864C45.9414 11.2554 46.2917 10.8641 46.8786 10.8641ZM67.2256 12.1153V8.75751H66.4066V10.7094C66.1336 10.3591 65.7423 10.1634 65.2327 10.1634C64.1772 10.1634 63.3582 10.9824 63.3582 12.1153C63.3582 13.2482 64.1772 14.0672 65.2327 14.0672C65.7787 14.0672 66.17 13.8715 66.4066 13.5212V13.9898H67.2256V12.1153ZM64.2181 12.1153C64.2181 11.451 64.6458 10.905 65.351 10.905C66.0153 10.905 66.4839 11.4146 66.4839 12.1153C66.4839 12.7796 66.0153 13.3256 65.351 13.3256C64.6458 13.2846 64.2181 12.775 64.2181 12.1153ZM36.8007 12.1153V10.2408H35.9818V10.7094C35.7088 10.3591 35.3175 10.1634 34.8079 10.1634C33.7523 10.1634 32.9334 10.9824 32.9334 12.1153C32.9334 13.2482 33.7523 14.0672 34.8079 14.0672C35.3539 14.0672 35.7452 13.8715 35.9818 13.5212V13.9898H36.8007V12.1153ZM33.7569 12.1153C33.7569 11.451 34.1846 10.905 34.8898 10.905C35.5541 10.905 36.0227 11.4146 36.0227 12.1153C36.0227 12.7796 35.5541 13.3256 34.8898 13.3256C34.1846 13.2846 33.7569 12.775 33.7569 12.1153Z" fill="white"/>
</svg>
