<svg viewBox="0 0 20 20" xmlns="http://www.w3.org/2000/svg"><path fill-rule="evenodd" clip-rule="evenodd" d="M10 19.167A9.167 9.167 0 1 0 10 .834a9.167 9.167 0 0 0 0 18.333Zm-.733-8.062c-.046.431.321.784.755.784.433 0 .74-.363.872-.776l.016-.048c.07-.185.173-.348.311-.489.14-.14.32-.276.539-.406a3.43 3.43 0 0 0 .675-.518 2.1 2.1 0 0 0 .443-.663 2.17 2.17 0 0 0 .162-.861c0-.484-.12-.897-.36-1.24a2.26 2.26 0 0 0-.995-.782c-.423-.182-.909-.274-1.458-.274-.5 0-.957.09-1.372.27a2.278 2.278 0 0 0-.998.808 2.021 2.021 0 0 0-.256.51c-.154.453.252.857.73.857h.22c.334 0 .578-.29.764-.568a.973.973 0 0 1 .394-.348c.16-.08.33-.12.51-.12.184 0 .353.039.505.116a.91.91 0 0 1 .369.332.92.92 0 0 1 .136.5c0 .18-.04.343-.12.49a1.49 1.49 0 0 1-.323.393 3.917 3.917 0 0 1-.46.344 2.87 2.87 0 0 0-.588.48 1.744 1.744 0 0 0-.373.697c-.048.167-.079.34-.098.512Zm.081 3.146c.196.193.433.29.709.29.177 0 .34-.044.489-.133.149-.09.269-.21.36-.36a.95.95 0 0 0-.157-1.197.963.963 0 0 0-.692-.29.973.973 0 0 0-.709.29.935.935 0 0 0-.286.696.953.953 0 0 0 .286.704Z"/></svg>