<svg width="72" height="24" viewBox="0 0 72 24" fill="none" xmlns="http://www.w3.org/2000/svg">
<path d="M53.4437 16.9531C52.5726 16.9531 51.7015 16.9531 50.8173 16.9531C50.7212 16.5022 50.6182 16.0611 50.5368 15.6162C50.503 15.4316 50.4425 15.36 50.2315 15.3626C49.1784 15.3758 48.125 15.3726 47.0719 15.3645C46.9124 15.3632 46.849 15.4146 46.8005 15.5564C46.6554 15.9804 46.4968 16.4 46.3344 16.8179C46.3124 16.8747 46.2393 16.9526 46.1894 16.953C45.2401 16.961 44.2907 16.9589 43.314 16.9589C43.4919 16.5404 43.6605 16.1407 43.8316 15.7422C45.0556 12.8907 46.2801 10.0393 47.5045 7.18795C47.7697 6.57038 48.1673 6.31178 48.8512 6.31174C49.6132 6.31168 50.3754 6.31172 51.157 6.31172C51.2332 6.65936 51.3099 7.00192 51.3832 7.34516C51.9856 10.1631 52.5865 12.9813 53.1903 15.799C53.2676 16.1599 53.3589 16.518 53.4437 16.8773C53.4437 16.9026 53.4437 16.9278 53.4437 16.9531ZM50.0063 13.1716C49.7264 11.8613 49.4503 10.5686 49.1741 9.27589C49.1629 9.27373 49.1516 9.27158 49.1403 9.26942C48.6592 10.5654 48.178 11.8613 47.6915 13.1716C48.4773 13.1716 49.2296 13.1716 50.0063 13.1716Z" fill="white"/>
<path d="M42.0021 6.12225C42.3486 6.18509 42.6979 6.23676 43.0411 6.31405C43.3542 6.38459 43.6609 6.48289 43.9937 6.57546C43.8259 7.34144 43.6622 8.08906 43.502 8.82056C43.0629 8.69481 42.6432 8.55004 42.2118 8.45706C41.6217 8.32989 41.0171 8.28143 40.4268 8.44205C40.1868 8.50733 39.9439 8.63271 39.755 8.79076C39.4309 9.06185 39.4266 9.4521 39.7362 9.73671C39.9496 9.93299 40.2025 10.0941 40.4553 10.2425C41.0299 10.5799 41.6333 10.8733 42.1917 11.2338C42.8494 11.6582 43.3291 12.2418 43.4299 13.0308C43.608 14.4264 43.0795 15.5257 41.8789 16.3033C41.1239 16.7924 40.2695 17.0108 39.3794 17.0917C38.1364 17.2046 36.918 17.0686 35.7304 16.6877C35.6507 16.6621 35.5732 16.6302 35.4956 16.5992C35.4724 16.59 35.4523 16.5736 35.4168 16.552C35.5845 15.7849 35.7526 15.0165 35.9253 14.2268C36.1278 14.3131 36.3178 14.3996 36.512 14.476C37.4399 14.8411 38.3981 15.008 39.3912 14.8264C39.6496 14.7791 39.9131 14.6677 40.1321 14.5244C40.6074 14.2132 40.6529 13.6287 40.2202 13.2633C39.9358 13.0232 39.594 12.8458 39.2698 12.653C38.7637 12.352 38.226 12.0954 37.747 11.7585C37.133 11.3265 36.6883 10.7506 36.604 9.9853C36.4778 8.83924 36.9134 7.90868 37.8143 7.18563C38.5982 6.5565 39.5288 6.2773 40.5204 6.16004C40.5755 6.15352 40.6291 6.13513 40.6834 6.12225C41.1229 6.12225 41.5625 6.12225 42.0021 6.12225Z" fill="white"/>
<path d="M31.7889 6.32043C31.6414 6.66708 31.5018 6.9976 31.3602 7.32734C30.0084 10.4758 28.6551 13.6235 27.3089 16.7743C27.2449 16.9244 27.1664 16.9638 27.0105 16.9626C26.1573 16.9557 25.3041 16.9529 24.4511 16.9644C24.2702 16.9668 24.2113 16.9049 24.1696 16.7465C23.4464 13.9945 22.711 11.2455 21.9961 8.49149C21.8648 7.98623 21.6022 7.64115 21.1097 7.42938C20.3202 7.0899 19.5006 6.85144 18.6647 6.65761C18.6277 6.64903 18.5909 6.63965 18.5562 6.63118C18.5603 6.31177 18.5603 6.31176 18.8714 6.31175C20.3644 6.31175 21.8575 6.31142 23.3505 6.3119C24.0587 6.31212 24.5698 6.71379 24.7037 7.39819C25.0827 9.33568 25.4537 11.2747 25.8281 13.213C25.8444 13.2978 25.8631 13.3822 25.8879 13.5015C25.9266 13.4305 25.9536 13.3906 25.9713 13.347C26.8985 11.0568 27.8261 8.76681 28.7487 6.47485C28.7991 6.34974 28.8611 6.3073 28.9996 6.30837C29.8656 6.31508 30.7317 6.31161 31.5978 6.31208C31.6538 6.31212 31.7097 6.31684 31.7889 6.32043Z" fill="white"/>
<path d="M30.6584 16.9592C31.4383 13.4 32.2128 9.86584 32.9892 6.32306C33.9336 6.32306 34.867 6.32306 35.8181 6.32306C35.7004 6.86265 35.5853 7.39194 35.4693 7.92107C34.8285 10.8474 34.1852 13.7732 33.5513 16.7009C33.5073 16.9044 33.4334 16.969 33.2172 16.9649C32.4419 16.9503 31.6663 16.9592 30.8907 16.9592C30.8211 16.9592 30.7516 16.9592 30.6584 16.9592Z" fill="white"/>
</svg>
